<svg width="84" height="84" viewBox="0 0 84 84" fill="none" xmlns="http://www.w3.org/2000/svg">
<path fill-rule="evenodd" clip-rule="evenodd" d="M5.25 42C5.25 51.7467 9.12186 61.0942 16.0138 67.9862C22.9058 74.8781 32.2533 78.75 42 78.75C51.7467 78.75 61.0942 74.8781 67.9862 67.9862C74.8781 61.0942 78.75 51.7467 78.75 42C78.75 32.2533 74.8781 22.9058 67.9862 16.0138C61.0942 9.12186 51.7467 5.25 42 5.25C32.2533 5.25 22.9058 9.12186 16.0138 16.0138C9.12186 22.9058 5.25 32.2533 5.25 42ZM84 42C84 53.1391 79.575 63.822 71.6985 71.6985C63.822 79.575 53.1391 84 42 84C30.8609 84 20.178 79.575 12.3015 71.6985C4.42499 63.822 0 53.1391 0 42C0 30.8609 4.42499 20.178 12.3015 12.3015C20.178 4.42499 30.8609 0 42 0C53.1391 0 63.822 4.42499 71.6985 12.3015C79.575 20.178 84 30.8609 84 42ZM44.625 23.625C44.625 22.9288 44.3484 22.2611 43.8562 21.7688C43.3639 21.2766 42.6962 21 42 21C41.3038 21 40.6361 21.2766 40.1438 21.7688C39.6516 22.2611 39.375 22.9288 39.375 23.625V54.0382L28.1085 42.7665C27.6156 42.2736 26.9471 41.9967 26.25 41.9967C25.5529 41.9967 24.8844 42.2736 24.3915 42.7665C23.8986 43.2594 23.6217 43.9279 23.6217 44.625C23.6217 45.3221 23.8986 45.9906 24.3915 46.4835L40.1415 62.2335C40.3853 62.478 40.675 62.6719 40.9939 62.8042C41.3128 62.9366 41.6547 63.0047 42 63.0047C42.3453 63.0047 42.6872 62.9366 43.0061 62.8042C43.325 62.6719 43.6147 62.478 43.8585 62.2335L59.6085 46.4835C60.1014 45.9906 60.3783 45.3221 60.3783 44.625C60.3783 43.9279 60.1014 43.2594 59.6085 42.7665C59.1156 42.2736 58.4471 41.9967 57.75 41.9967C57.0529 41.9967 56.3844 42.2736 55.8915 42.7665L44.625 54.0382V23.625Z" fill="#717584"/>
</svg>
