<svg fill="#ebf6fe" width="192" xmlns="http://www.w3.org/2000/svg" viewBox="0 0 213.82 40.5"><path class="cls-1" d="M21.58,31.85,2.65,24.13A3.82,3.82,0,0,1,0,20.34a3.76,3.76,0,0,1,2.65-3.68L21.58,8.89a2.38,2.38,0,0,1,2.12,0,2.63,2.63,0,0,1,1.23,1.45,2.81,2.81,0,0,1,0,1.94,2.52,2.52,0,0,1-1.53,1.48L6.83,20.39,23.4,27.08a2.37,2.37,0,0,1,1.53,1.42,2.84,2.84,0,0,1,0,1.95,2.5,2.5,0,0,1-1.23,1.42A2.45,2.45,0,0,1,21.58,31.85Z"/><path class="cls-1" d="M38.93,32.5a13.05,13.05,0,0,1-6.21-1.41,9.76,9.76,0,0,1-4.07-4A12.4,12.4,0,0,1,27.23,21a12.14,12.14,0,0,1,1.42-6,9.58,9.58,0,0,1,4.07-3.9,13.53,13.53,0,0,1,6.21-1.35,14.49,14.49,0,0,1,3,.33,11.25,11.25,0,0,1,3,1.13,2.42,2.42,0,0,1,1.38,1.49,2.86,2.86,0,0,1-.11,1.89A2.54,2.54,0,0,1,45,15.92a2,2,0,0,1-1.93-.15,7.37,7.37,0,0,0-3.47-.94,5.14,5.14,0,0,0-4.07,1.63,6.65,6.65,0,0,0-1.45,4.6,6.79,6.79,0,0,0,1.45,4.61,5.09,5.09,0,0,0,4.07,1.66,7.33,7.33,0,0,0,1.69-.2,6.54,6.54,0,0,0,1.78-.69A2,2,0,0,1,45,26.31a2.37,2.37,0,0,1,1.14,1.36,3.12,3.12,0,0,1,0,1.89,2.34,2.34,0,0,1-1.33,1.51,12.71,12.71,0,0,1-3,1.09A13.6,13.6,0,0,1,38.93,32.5Z"/><path class="cls-1" d="M51.92,32.23a3.64,3.64,0,0,1-3.87-3.83,3.63,3.63,0,0,1,1.05-2.69,3.8,3.8,0,0,1,2.82-1.05,3.64,3.64,0,0,1,2.78,1.05,3.72,3.72,0,0,1,1,2.69,3.85,3.85,0,0,1-1,2.76A3.62,3.62,0,0,1,51.92,32.23Z"/><path class="cls-1" d="M67.58,40.5A25,25,0,0,1,63,40.1a15.93,15.93,0,0,1-3.92-1.2,2.69,2.69,0,0,1-1.64-1.51,2.57,2.57,0,0,1,0-1.91,2.74,2.74,0,0,1,1.2-1.41,2,2,0,0,1,1.85,0,14.1,14.1,0,0,0,3.62,1.16,18.45,18.45,0,0,0,2.87.27q5.7,0,5.7-5.25v-2.5a6.52,6.52,0,0,1-2.8,2.72,8.77,8.77,0,0,1-4.19,1,9.42,9.42,0,0,1-5.11-1.36,9,9,0,0,1-3.38-3.8A12.88,12.88,0,0,1,56,20.57a12.78,12.78,0,0,1,1.2-5.69,9.08,9.08,0,0,1,3.38-3.81,9.51,9.51,0,0,1,5.11-1.35,8.78,8.78,0,0,1,4.14,1,6.53,6.53,0,0,1,2.76,2.58v-.08a3.41,3.41,0,0,1,.87-2.52A3.34,3.34,0,0,1,76,9.8q3.28,0,3.29,3.39V29.47q0,5.52-3,8.28T67.58,40.5Zm.14-14.06a4.52,4.52,0,0,0,3.58-1.55,6.39,6.39,0,0,0,1.36-4.32,6.27,6.27,0,0,0-1.36-4.29,5,5,0,0,0-7.19,0,6.31,6.31,0,0,0-1.33,4.29,6.43,6.43,0,0,0,1.33,4.32A4.49,4.49,0,0,0,67.72,26.44Z"/><path class="cls-1" d="M92.72,32.5a12.69,12.69,0,0,1-6.12-1.41,9.83,9.83,0,0,1-4-4,12.27,12.27,0,0,1-1.43-6.07,12.22,12.22,0,0,1,1.43-6,9.78,9.78,0,0,1,4-3.94,14.35,14.35,0,0,1,12.24,0,10,10,0,0,1,4,3.94,12.12,12.12,0,0,1,1.44,6,12.17,12.17,0,0,1-1.44,6.07,10,10,0,0,1-4,4A12.69,12.69,0,0,1,92.72,32.5Zm0-5a4.41,4.41,0,0,0,3.49-1.56,7.22,7.22,0,0,0,1.36-4.85,7.05,7.05,0,0,0-1.36-4.78,4.43,4.43,0,0,0-3.49-1.54,4.37,4.37,0,0,0-3.47,1.54,7.16,7.16,0,0,0-1.33,4.78,7.34,7.34,0,0,0,1.33,4.85A4.36,4.36,0,0,0,92.72,27.47Z"/><path class="cls-1" d="M115.5,32.5a9,9,0,0,1-5-1.41,9.31,9.31,0,0,1-3.36-4,14.17,14.17,0,0,1-1.2-6.07,14,14,0,0,1,1.2-6,8.83,8.83,0,0,1,8.37-5.29,8.66,8.66,0,0,1,4,.93,6.58,6.58,0,0,1,2.76,2.49V3.66q0-3.42,3.34-3.42T129,3.66V29c0,2.28-1.11,3.43-3.34,3.43s-3.33-1.15-3.33-3.43v-.13a6.48,6.48,0,0,1-2.74,2.67A8.59,8.59,0,0,1,115.5,32.5Zm2-5A4.41,4.41,0,0,0,121,25.91a7.22,7.22,0,0,0,1.36-4.85A7.05,7.05,0,0,0,121,16.28a4.43,4.43,0,0,0-3.49-1.54A4.37,4.37,0,0,0,114,16.28a7.16,7.16,0,0,0-1.33,4.78A7.34,7.34,0,0,0,114,25.91,4.36,4.36,0,0,0,117.5,27.47Z"/><path class="cls-1" d="M142.15,32.5A12.63,12.63,0,0,1,136,31.09a9.79,9.79,0,0,1-4-4,12.27,12.27,0,0,1-1.42-6.07A12.22,12.22,0,0,1,132,15a9.75,9.75,0,0,1,4-3.94,14.33,14.33,0,0,1,12.23,0A9.86,9.86,0,0,1,152.31,15a12,12,0,0,1,1.45,6,12.07,12.07,0,0,1-1.45,6.07,9.9,9.9,0,0,1-4.05,4A12.62,12.62,0,0,1,142.15,32.5Zm0-5a4.42,4.42,0,0,0,3.49-1.56A7.28,7.28,0,0,0,147,21.06a7.1,7.1,0,0,0-1.36-4.78,4.44,4.44,0,0,0-3.49-1.54,4.36,4.36,0,0,0-3.47,1.54,7.16,7.16,0,0,0-1.34,4.78,7.33,7.33,0,0,0,1.34,4.85A4.34,4.34,0,0,0,142.15,27.47Z"/><path class="cls-1" d="M161,40.42a2.64,2.64,0,0,1-2.52-1.32,3.24,3.24,0,0,1,.07-3.05l2.36-5.25-7.26-16.64a3.37,3.37,0,0,1,0-3c.49-.88,1.47-1.32,3-1.32a3.12,3.12,0,0,1,1.93.56,5,5,0,0,1,1.36,2.11L164.44,24l4.71-11.61a4.71,4.71,0,0,1,1.4-2.07,3.6,3.6,0,0,1,2.12-.56,2.47,2.47,0,0,1,2.38,1.32,3.28,3.28,0,0,1-.07,3L164.53,37.83a4.63,4.63,0,0,1-1.5,2.05A3.65,3.65,0,0,1,161,40.42Z"/><path class="cls-1" d="M178.59,38.43a2.76,2.76,0,0,1-1.5,1.82,3.16,3.16,0,0,1-2.14.12,3,3,0,0,1-1.69-1.25,2.71,2.71,0,0,1-.13-2.41l11.1-34.63a2.74,2.74,0,0,1,1.5-1.81,3.16,3.16,0,0,1,2.14-.15,2.8,2.8,0,0,1,1.69,1.25,2.66,2.66,0,0,1,.13,2.38Z"/><path class="cls-1" d="M192.24,31.85a2.43,2.43,0,0,1-2.11,0,2.5,2.5,0,0,1-1.23-1.42,2.84,2.84,0,0,1,0-1.95,2.37,2.37,0,0,1,1.52-1.42L207,20.39l-16.57-6.63a2.53,2.53,0,0,1-1.52-1.48,2.81,2.81,0,0,1,0-1.94,2.63,2.63,0,0,1,1.23-1.45,2.36,2.36,0,0,1,2.11,0l18.93,7.77a3.76,3.76,0,0,1,2.65,3.68,3.82,3.82,0,0,1-2.65,3.79Z"/></svg>
