<svg width="455" height="107" viewBox="0 0 455 107" fill="none" xmlns="http://www.w3.org/2000/svg">
<path d="M222.92 0.302612V11.2426C222.92 13.9637 221.839 16.5734 219.915 18.4975C217.991 20.4217 215.381 21.5026 212.66 21.5026H138.14V85.0826H201.72V63.8926H169.59C166.872 63.8926 164.266 62.8144 162.342 60.8946C160.419 58.9748 159.335 56.3703 159.33 53.6526V42.6526H212.66C214.01 42.6539 215.347 42.9215 216.594 43.4401C217.841 43.9587 218.973 44.7181 219.926 45.6748C220.879 46.6315 221.634 47.7667 222.148 49.0155C222.661 50.2644 222.924 51.6023 222.92 52.9526V96.0226C222.917 98.7429 221.835 101.351 219.912 103.275C217.988 105.198 215.38 106.28 212.66 106.283H127.2C124.48 106.28 121.872 105.198 119.948 103.275C118.024 101.351 116.943 98.7429 116.94 96.0226V10.5626C116.943 7.8423 118.024 5.23417 119.948 3.31062C121.872 1.38707 124.48 0.30526 127.2 0.302612H222.92Z" fill="#006633"/>
<path d="M338.86 0.302612V11.2426C338.861 12.5895 338.597 13.9234 338.083 15.1682C337.568 16.4129 336.813 17.5441 335.862 18.4969C334.91 19.4498 333.779 20.2057 332.535 20.7214C331.291 21.2372 329.957 21.5026 328.61 21.5026H296.44V96.0226C296.437 98.7429 295.356 101.351 293.432 103.275C291.509 105.198 288.9 106.28 286.18 106.283H275.28V21.5026H243.15C240.429 21.5026 237.819 20.4217 235.895 18.4975C233.971 16.5734 232.89 13.9637 232.89 11.2426V0.302612H338.86Z" fill="#006633"/>
<path d="M454.81 95.5926V52.9526C454.815 51.6019 454.554 50.2634 454.04 49.014C453.527 47.7646 452.772 46.6288 451.819 45.6718C450.866 44.7149 449.733 43.9555 448.485 43.4374C447.238 42.9193 445.901 42.6526 444.55 42.6526H370.03V21.5026H444.55C447.271 21.5026 449.881 20.4217 451.805 18.4975C453.729 16.5734 454.81 13.9637 454.81 11.2426V0.302612H359.1C356.379 0.302612 353.769 1.38357 351.845 3.30769C349.921 5.23182 348.84 7.84149 348.84 10.5626V53.6526C348.84 56.3737 349.921 58.9834 351.845 60.9075C353.769 62.8316 356.379 63.9126 359.1 63.9126H433.62V85.1026H359.1C356.379 85.1026 353.769 86.1836 351.845 88.1077C349.921 90.0318 348.84 92.6415 348.84 95.3626V106.303H444.12L454.81 95.5926Z" fill="#006633"/>
<path d="M12.3301 11.6326V102.243H20.2901L102.94 19.5926V11.6326H12.3301Z" fill="#FFFF00"/>
<path d="M22.19 21.5026H97.11C99.7225 21.5 102.227 20.4617 104.076 18.6153C105.924 16.7689 106.965 14.2651 106.97 11.6526V0.302612H0.969971V106.303H12.33C13.6256 106.303 14.9086 106.047 16.1055 105.551C17.3025 105.055 18.3899 104.328 19.3056 103.411C20.2213 102.495 20.9474 101.406 21.4423 100.209C21.9372 99.0115 22.1913 97.7283 22.19 96.4326V21.5026Z" fill="#006633"/>
<path d="M64.5801 31.8426C58.5986 31.8326 52.7341 33.4993 47.652 36.6536C42.5698 39.8079 38.4734 44.3234 35.8276 49.6879C33.1818 55.0524 32.0926 61.051 32.6833 67.0032C33.2741 72.9554 35.5214 78.6229 39.1701 83.3626L84.0501 38.4826C78.4742 34.1746 71.6262 31.8392 64.5801 31.8426Z" fill="#006699"/>
</svg>
